HIERARCHY
ROOT Hips
{
  OFFSET 5.80788e-005 67.184 3.4734
  CHANNELS 6 Xposition Yposition Zposition Zrotation Xrotation Yrotation
  JOINT Chest
  {
    OFFSET 0 8.7983 -4.7612
    CHANNELS 6 Xposition Yposition Zposition Zrotation Xrotation Yrotation
    JOINT Chest2
    {
      OFFSET 0 8.0291 0.4195
      CHANNELS 6 Xposition Yposition Zposition Zrotation Xrotation Yrotation
      JOINT Chest3
      {
        OFFSET 0 9.9351 -2.2114
        CHANNELS 6 Xposition Yposition Zposition Zrotation Xrotation Yrotation
        JOINT Neck
        {
          OFFSET 0 22.3885 -0.4656
          CHANNELS 6 Xposition Yposition Zposition Zrotation Xrotation Yrotation
          JOINT Head
          {
            OFFSET -0.0001 12.643 3.4389
            CHANNELS 6 Xposition Yposition Zposition Zrotation Xrotation Yrotation
            End Site
            {
              OFFSET 0.0001 17.6655 0.5274
            }
          }
        }
        JOINT LeftCollar
        {
          OFFSET 2.2603 21.606 7.4023
          CHANNELS 6 Xposition Yposition Zposition Zrotation Xrotation Yrotation
          JOINT LeftShoulder
          {
            OFFSET 13.5163 -1.1332 -5.0146
            CHANNELS 6 Xposition Yposition Zposition Zrotation Xrotation Yrotation
            JOINT LeftElbow
            {
              OFFSET -0.0995 -28.05 -0.2431
              CHANNELS 6 Xposition Yposition Zposition Zrotation Xrotation Yrotation
              JOINT LeftWrist
              {
                OFFSET 0.0679 -23.3996 -0.1402
                CHANNELS 6 Xposition Yposition Zposition Zrotation Xrotation Yrotation
                JOINT LeftFinger1
                {
                  OFFSET 0.7932 -9.069 2.5189
                  CHANNELS 6 Xposition Yposition Zposition Zrotation Xrotation Yrotation
                  JOINT LeftFinger11
                  {
                    OFFSET -0.8272 -3.3923 0.5977
                    CHANNELS 6 Xposition Yposition Zposition Zrotation Xrotation Yrotation
                    JOINT LeftFinger12
                    {
                      OFFSET -0.5649 -2.3158 0.4082
                      CHANNELS 6 Xposition Yposition Zposition Zrotation Xrotation Yrotation
                      End Site
                      {
                        OFFSET -0.4919 -1.6479 0.2673
                      }
                    }
                  }
                }
                JOINT LeftFinger2
                {
                  OFFSET 0.9159 -9.2044 0.2193
                  CHANNELS 6 Xposition Yposition Zposition Zrotation Xrotation Yrotation
                  JOINT LeftFinger21
                  {
                    OFFSET 0.0117 -4.1944 -0.0248
                    CHANNELS 6 Xposition Yposition Zposition Zrotation Xrotation Yrotation
                    JOINT LeftFinger22
                    {
                      OFFSET 0.0071 -2.3249 -0.0142
                      CHANNELS 6 Xposition Yposition Zposition Zrotation Xrotation Yrotation
                      End Site
                      {
                        OFFSET -0.1475 -2.0882 0.0028
                      }
                    }
                  }
                }
                JOINT LeftFinger3
                {
                  OFFSET 0.6113 -8.7231 -2.0637
                  CHANNELS 6 Xposition Yposition Zposition Zrotation Xrotation Yrotation
                  JOINT LeftFinger31
                  {
                    OFFSET -0.1927 -3.8059 -0.2383
                    CHANNELS 6 Xposition Yposition Zposition Zrotation Xrotation Yrotation
                    JOINT LeftFinger32
                    {
                      OFFSET -0.1091 -2.1688 -0.1362
                      CHANNELS 6 Xposition Yposition Zposition Zrotation Xrotation Yrotation
                      End Site
                      {
                        OFFSET -0.2358 -1.9176 -0.0906
                      }
                    }
                  }
                }
                JOINT LeftFinger4
                {
                  OFFSET -0.6151 -8.0947 -3.5641
                  CHANNELS 6 Xposition Yposition Zposition Zrotation Xrotation Yrotation
                  JOINT LeftFinger41
                  {
                    OFFSET -0.4882 -2.341 -0.6462
                    CHANNELS 6 Xposition Yposition Zposition Zrotation Xrotation Yrotation
                    JOINT LeftFinger42
                    {
                      OFFSET -0.3575 -1.7167 -0.4742
                      CHANNELS 6 Xposition Yposition Zposition Zrotation Xrotation Yrotation
                      End Site
                      {
                        OFFSET -0.4187 -1.5237 -0.3496
                      }
                    }
                  }
                }
                JOINT LeftFinger0
                {
                  OFFSET -1.42 -1.8761 1.4223
                  CHANNELS 6 Xposition Yposition Zposition Zrotation Xrotation Yrotation
                  JOINT LeftFinger01
                  {
                    OFFSET -1.1471 -3.4929 2.6334
                    CHANNELS 6 Xposition Yposition Zposition Zrotation Xrotation Yrotation
                    JOINT LeftFinger02
                    {
                      OFFSET -0.823 -2.3 1.6571
                      CHANNELS 6 Xposition Yposition Zposition Zrotation Xrotation Yrotation
                      End Site
                      {
                        OFFSET -0.5822 -1.6914 1.1582
                      }
                    }
                  }
                }
              }
            }
          }
        }
        JOINT RightCollar
        {
          OFFSET -2.2603 21.606 7.4023
          CHANNELS 6 Xposition Yposition Zposition Zrotation Xrotation Yrotation
          JOINT RightShoulder
          {
            OFFSET -13.5187 -1.1334 -5.0155
            CHANNELS 6 Xposition Yposition Zposition Zrotation Xrotation Yrotation
            JOINT RightElbow
            {
              OFFSET 0.0994 -28.0499 -0.2431
              CHANNELS 6 Xposition Yposition Zposition Zrotation Xrotation Yrotation
              JOINT RightWrist
              {
                OFFSET -0.0679 -23.3996 -0.1402
                CHANNELS 6 Xposition Yposition Zposition Zrotation Xrotation Yrotation
                JOINT RightFinger1
                {
                  OFFSET -0.7932 -9.0691 2.5189
                  CHANNELS 6 Xposition Yposition Zposition Zrotation Xrotation Yrotation
                  JOINT RightFinger11
                  {
                    OFFSET 0.8272 -3.3923 0.5977
                    CHANNELS 6 Xposition Yposition Zposition Zrotation Xrotation Yrotation
                    JOINT RightFinger12
                    {
                      OFFSET 0.565 -2.3158 0.4082
                      CHANNELS 6 Xposition Yposition Zposition Zrotation Xrotation Yrotation
                      End Site
                      {
                        OFFSET 0.4919 -1.6479 0.2673
                      }
                    }
                  }
                }
                JOINT RightFinger2
                {
                  OFFSET -0.916 -9.2044 0.2193
                  CHANNELS 6 Xposition Yposition Zposition Zrotation Xrotation Yrotation
                  JOINT RightFinger21
                  {
                    OFFSET -0.0117 -4.1944 -0.0248
                    CHANNELS 6 Xposition Yposition Zposition Zrotation Xrotation Yrotation
                    JOINT RightFinger22
                    {
                      OFFSET -0.0071 -2.3249 -0.0142
                      CHANNELS 6 Xposition Yposition Zposition Zrotation Xrotation Yrotation
                      End Site
                      {
                        OFFSET 0.1475 -2.0882 0.0028
                      }
                    }
                  }
                }
                JOINT RightFinger3
                {
                  OFFSET -0.6113 -8.7231 -2.0637
                  CHANNELS 6 Xposition Yposition Zposition Zrotation Xrotation Yrotation
                  JOINT RightFinger31
                  {
                    OFFSET 0.1927 -3.8059 -0.2383
                    CHANNELS 6 Xposition Yposition Zposition Zrotation Xrotation Yrotation
                    JOINT RightFinger32
                    {
                      OFFSET 0.1091 -2.1688 -0.1362
                      CHANNELS 6 Xposition Yposition Zposition Zrotation Xrotation Yrotation
                      End Site
                      {
                        OFFSET 0.2358 -1.9176 -0.0906
                      }
                    }
                  }
                }
                JOINT RightFinger4
                {
                  OFFSET 0.6151 -8.0947 -3.564
                  CHANNELS 6 Xposition Yposition Zposition Zrotation Xrotation Yrotation
                  JOINT RightFinger41
                  {
                    OFFSET 0.4882 -2.341 -0.6462
                    CHANNELS 6 Xposition Yposition Zposition Zrotation Xrotation Yrotation
                    JOINT RightFinger42
                    {
                      OFFSET 0.3574 -1.7166 -0.4742
                      CHANNELS 6 Xposition Yposition Zposition Zrotation Xrotation Yrotation
                      End Site
                      {
                        OFFSET 0.4187 -1.5237 -0.3496
                      }
                    }
                  }
                }
                JOINT RightFinger0
                {
                  OFFSET 1.4199 -1.8761 1.4221
                  CHANNELS 6 Xposition Yposition Zposition Zrotation Xrotation Yrotation
                  JOINT RightFinger01
                  {
                    OFFSET 1.1472 -3.4929 2.6336
                    CHANNELS 6 Xposition Yposition Zposition Zrotation Xrotation Yrotation
                    JOINT RightFinger02
                    {
                      OFFSET 0.8229 -2.3 1.6571
                      CHANNELS 6 Xposition Yposition Zposition Zrotation Xrotation Yrotation
                      End Site
                      {
                        OFFSET 0.5822 -1.6914 1.1582
                      }
                    }
                  }
                }
              }
            }
          }
        }
      }
    }
  }
  JOINT RightHip
  {
    OFFSET -9.412 3.9771 -0.7758
    CHANNELS 6 Xposition Yposition Zposition Zrotation Xrotation Yrotation
    JOINT RightKnee
    {
      OFFSET -0.7531 -40.938 0
      CHANNELS 6 Xposition Yposition Zposition Zrotation Xrotation Yrotation
      JOINT RightAnkle
      {
        OFFSET 0 -40.1986 0
        CHANNELS 6 Xposition Yposition Zposition Zrotation Xrotation Yrotation
        JOINT RightToe
        {
          OFFSET 0 -4.4182 9.239
          CHANNELS 6 Xposition Yposition Zposition Zrotation Xrotation Yrotation
          End Site
          {
            OFFSET 0 0 6.1981
          }
        }
      }
    }
  }
  JOINT LeftHip
  {
    OFFSET 9.4119 3.9773 -0.7758
    CHANNELS 6 Xposition Yposition Zposition Zrotation Xrotation Yrotation
    JOINT LeftKnee
    {
      OFFSET 0.7532 -40.9383 0
      CHANNELS 6 Xposition Yposition Zposition Zrotation Xrotation Yrotation
      JOINT LeftAnkle
      {
        OFFSET 0 -40.1986 0
        CHANNELS 6 Xposition Yposition Zposition Zrotation Xrotation Yrotation
        JOINT LeftToe
        {
          OFFSET 0 -4.4182 9.239
          CHANNELS 6 Xposition Yposition Zposition Zrotation Xrotation Yrotation
          End Site
          {
            OFFSET 0 0 6.1981
          }
        }
      }
    }
  }
}
MOTION
Frames:	4
Frame Time:	0.0333333
41.7994 41.1008 18.1219 179.97 59.0055 -29.9888 0 8.7983 -4.7612 -0.59108 8.59279 4.13562 3.55271e-015 8.0291 0.4195 -1.84713 17.1185 8.50708 0 9.9351 -2.2114 -1.84713 17.1185 8.5071 0 22.3885 -0.4656 -30.421 26.2834 14.5734 -0.0001 12.643 3.4389 -5.05061 -7.97169 -8.70389 2.2603 21.606 7.4023 -41.7089 0.340248 -14.5064 13.5163 -1.1332 -5.0146 62.5786 14.3256 -39.0513 -0.0995 -28.05 -0.2431 1.47177 -4.75069 -35.6538 0.0679 -23.3996 -0.1402 5.97062 -10.8447 11.8721 0.7932 -9.069 2.5189 5.43102e-006 3.56758e-006 -6.442e-006 -0.8272 -3.3923 0.5977 1.59028e-015 -3.18055e-015 -1.59028e-015 -0.5649 -2.3158 0.4082 -5.43102e-006 -3.56758e-006 6.442e-006 0.9159 -9.2044 0.2193 5.43102e-006 3.56758e-006 -6.442e-006 0.0117 -4.1944 -0.0248 -0.0128057 0.00231462 9.00458e-005 0.0071 -2.3249 -0.0142 8.64173e-006 -5.22801e-006 -5.30465e-006 0.6113 -8.7231 -2.0637 5.43102e-006 3.56758e-006 -6.442e-006 -0.1927 -3.8059 -0.2383 -0.0160547 0.00299524 0.000868909 -0.1091 -2.1688 -0.1362 1.59028e-015 -1.59028e-014 -0 -0.6151 -8.0947 -3.5641 5.43102e-006 3.56758e-006 -6.442e-006 -0.4882 -2.341 -0.6462 -0.0125829 0.00311258 0.00283558 -0.3575 -1.7167 -0.4742 -1.59028e-015 -3.18055e-015 2.78299e-015 -1.42 -1.8761 1.4223 5.43102e-006 3.56758e-006 -6.442e-006 -1.1471 -3.4929 2.6334 1.59028e-015 -3.18055e-015 -1.59028e-015 -0.823 -2.3 1.6571 -5.43102e-006 -3.56758e-006 6.442e-006 -2.2603 21.606 7.4023 -18.3804 -6.58771 6.78172 -13.5187 -1.1334 -5.0155 -22.632 8.15224 38.3283 0.0994 -28.0499 -0.2431 9.98895 -31.8337 39.9368 -0.0679 -23.3996 -0.1402 -0.621292 16.7374 1.64874 -0.7932 -9.0691 2.5189 7.95139e-016 -3.18055e-015 -0 0.8272 -3.3923 0.5977 7.95139e-016 3.4083e-006 -1.59028e-015 0.565 -2.3158 0.4082 -0 0 7.95139e-016 -0.916 -9.2044 0.2193 7.95139e-016 -3.18055e-015 -0 -0.0117 -4.1944 -0.0248 0.0129415 0.00233124 -8.38416e-005 -0.0071 -2.3249 -0.0142 -2.38542e-015 -6.36111e-015 -5.96354e-015 -0.6113 -8.7231 -2.0637 7.95139e-016 -3.18055e-015 -0 0.1927 -3.8059 -0.2383 0.0163058 0.00303999 -0.000872577 0.1091 -2.1688 -0.1362 -6.07854e-006 -9.94531e-007 9.72419e-006 0.6151 -8.0947 -3.564 7.95139e-016 -3.18055e-015 -0 0.4882 -2.341 -0.6462 0.01461 0.00368362 -0.00326574 0.3574 -1.7166 -0.4742 -0 0 1.59028e-015 1.4199 -1.8761 1.4221 7.95139e-016 -3.18055e-015 -0 1.1472 -3.4929 2.6336 7.95139e-016 3.4083e-006 -1.59028e-015 0.8229 -2.3 1.6571 -0 0 7.95139e-016 -9.412 3.9771 -0.7758 -82.5553 -38.4765 -71.0658 -0.7531 -40.938 0 -130.911 66.8163 158.141 7.10543e-015 -40.1986 0 -26.5449 6.79499 4.27513 -1.42109e-014 -4.4182 9.23901 -1.81356e-006 6.40262e-006 4.91197e-006 9.4119 3.9773 -0.7758 67.2175 -51.8885 69.1578 0.7532 -40.9383 7.10543e-015 3.07914 18.5612 -0.387598 0 -40.1986 0 3.30577 -1.09057 0.248497 0 -4.4182 9.23901 3.34362e-015 0 -3.97569e-016 
41.799 41.1002 18.1197 179.97 59.0055 -29.9888 0 8.7983 -4.7612 -0.629816 8.67878 4.13205 7.10543e-015 8.0291 0.4195 -1.9327 17.2874 8.50989 7.10543e-015 9.9351 -2.2114 -1.93271 17.2874 8.50991 -3.55271e-015 22.3885 -0.4656 -30.3265 25.9544 14.3586 -0.0001 12.643 3.4389 -5.05058 -7.97169 -7.93324 2.2603 21.606 7.4023 -41.22 0.22934 -14.8255 13.5163 -1.1332 -5.0146 62.1185 14.2978 -38.9549 -0.0995 -28.05 -0.2431 1.49291 -4.97932 -35.6533 0.0679 -23.3996 -0.1402 6.02818 -10.7245 12.1362 0.7932 -9.069 2.5189 -7.95139e-016 3.18055e-015 -2.18663e-015 -0.8272 -3.3923 0.5977 -7.95139e-016 0 -4.37326e-015 -0.5649 -2.3158 0.4082 -1.59028e-015 6.36111e-015 -3.97569e-016 0.9159 -9.2044 0.2193 -7.95139e-016 3.18055e-015 -2.18663e-015 0.0117 -4.1944 -0.0248 -0.0128304 0.00233201 8.83397e-005 0.0071 -2.3249 -0.0142 8.18222e-006 -9.59385e-006 -9.04749e-006 0.6113 -8.7231 -2.0637 -7.95139e-016 3.18055e-015 -2.18663e-015 -0.1927 -3.8059 -0.2383 -0.0160705 0.00300976 0.000857644 -0.1091 -2.1688 -0.1362 -3.53113e-031 -6.36111e-015 -3.18055e-015 -0.6151 -8.0947 -3.5641 -7.95139e-016 3.18055e-015 -2.18663e-015 -0.4882 -2.341 -0.6462 -0.0125804 0.00310449 0.00281825 -0.3575 -1.7167 -0.4742 -1.59028e-015 -9.54166e-015 1.19271e-015 -1.42 -1.8761 1.4223 -7.95139e-016 3.18055e-015 -2.18663e-015 -1.1471 -3.4929 2.6334 -7.95139e-016 0 -4.37326e-015 -0.823 -2.3 1.6571 -1.59028e-015 6.36111e-015 -3.97569e-016 -2.2603 21.606 7.4023 -18.4619 -6.97266 6.85467 -13.5187 -1.1334 -5.0155 -22.632 8.15229 38.3283 0.0994 -28.0499 -0.2431 9.98889 -31.8337 39.9368 -0.0679 -23.3996 -0.1402 -0.578201 16.6564 1.44235 -0.7932 -9.0691 2.5189 7.95139e-016 1.27222e-014 -3.97569e-016 0.8272 -3.3923 0.5977 -7.94503e-031 1.27222e-014 3.57812e-015 0.565 -2.3158 0.4082 -5.20491e-006 -2.31074e-006 5.93718e-006 -0.916 -9.2044 0.2193 7.95139e-016 1.27222e-014 -3.97569e-016 -0.0117 -4.1944 -0.0248 0.0130066 0.00233719 -7.26416e-005 -0.0071 -2.3249 -0.0142 -1.59028e-015 0 -1.98785e-015 -0.6113 -8.7231 -2.0637 7.95139e-016 1.27222e-014 -3.97569e-016 0.1927 -3.8059 -0.2383 0.0163316 0.00304199 -0.000855318 0.1091 -2.1688 -0.1362 -3.18055e-015 -6.36111e-015 -7.95139e-016 0.6151 -8.0947 -3.564 7.95139e-016 1.27222e-014 -3.97569e-016 0.4882 -2.341 -0.6462 0.0145406 0.00367006 -0.00324586 0.3574 -1.7166 -0.4742 7.95139e-016 0 7.95139e-016 1.4199 -1.8761 1.4221 7.95139e-016 1.27222e-014 -3.97569e-016 1.1472 -3.4929 2.6336 -7.94503e-031 1.27222e-014 3.57812e-015 0.8229 -2.3 1.6571 -5.20491e-006 -2.31074e-006 5.93718e-006 -9.412 3.9771 -0.7758 -82.2418 -38.2666 -70.831 -0.7531 -40.938 -1.77636e-015 -130.362 66.8332 157.651 0 -40.1986 -1.42109e-014 -26.539 6.80868 4.27636 -7.10543e-015 -4.4182 9.239 1.14474e-006 5.92745e-006 6.2062e-006 9.4119 3.9773 -0.7758 67.2355 -51.895 69.1821 0.7532 -40.9383 -1.77636e-015 3.07882 18.5546 -0.387413 -7.10543e-015 -40.1986 7.10543e-015 3.30632 -1.08549 0.248227 -1.42109e-014 -4.4182 9.239 3.34247e-006 2.63778e-008 -1.96309e-007 
41.7985 41.0996 18.1176 179.97 59.0055 -29.9888 -5.32907e-015 8.7983 -4.7612 -0.668442 8.76475 4.12806 -3.55271e-015 8.0291 0.4195 -2.01807 17.4561 8.512 3.55271e-015 9.9351 -2.2114 -2.01808 17.4562 8.51202 -3.55271e-015 22.3885 -0.4656 -30.2335 25.625 14.145 -0.0001 12.643 3.4389 -5.05055 -7.97168 -7.16102 2.2603 21.606 7.4023 -40.7317 0.115746 -15.1435 13.5163 -1.1332 -5.0146 61.6586 14.2682 -38.8588 -0.0995 -28.05 -0.2431 1.51344 -5.20713 -35.6528 0.0679 -23.3996 -0.1402 6.08514 -10.604 12.4001 0.7932 -9.069 2.5189 -4.24482e-006 1.37672e-005 3.3003e-006 -0.8272 -3.3923 0.5977 -2.63794e-006 9.46794e-006 3.86195e-006 -0.5649 -2.3158 0.4082 8.61218e-006 -3.7589e-006 -5.33987e-006 0.9159 -9.2044 0.2193 -4.24482e-006 1.37672e-005 3.3003e-006 0.0117 -4.1944 -0.0248 -0.0127887 0.00232908 9.01667e-005 0.0071 -2.3249 -0.0142 3.67209e-006 -1.87124e-006 -8.28541e-006 0.6113 -8.7231 -2.0637 -4.24482e-006 1.37672e-005 3.3003e-006 -0.1927 -3.8059 -0.2383 -0.0160302 0.00299283 0.000853487 -0.1091 -2.1688 -0.1362 4.53304e-007 1.07342e-006 3.72453e-006 -0.6151 -8.0947 -3.5641 -4.24482e-006 1.37672e-005 3.3003e-006 -0.4882 -2.341 -0.6462 -0.0125918 0.00312873 0.00282742 -0.3575 -1.7167 -0.4742 -1.59028e-015 2.70512e-008 1.98785e-016 -1.42 -1.8761 1.4223 -4.24482e-006 1.37672e-005 3.3003e-006 -1.1471 -3.4929 2.6334 -2.63794e-006 9.46794e-006 3.86195e-006 -0.823 -2.3 1.6571 8.61218e-006 -3.7589e-006 -5.33987e-006 -2.2603 21.606 7.4023 -18.5429 -7.35768 6.92712 -13.5187 -1.1334 -5.0155 -22.6319 8.15231 38.3282 0.0994 -28.0499 -0.2431 9.98885 -31.8337 39.9368 -0.0679 -23.3996 -0.1402 -0.535467 16.5754 1.23619 -0.7932 -9.0691 2.5189 -7.95139e-016 -3.18055e-015 -3.57812e-015 0.8272 -3.3923 0.5977 -5.73215e-006 3.07121e-006 2.21262e-006 0.565 -2.3158 0.4082 4.84311e-006 6.38563e-006 1.56941e-006 -0.916 -9.2044 0.2193 -7.95139e-016 -3.18055e-015 -3.57812e-015 -0.0117 -4.1944 -0.0248 0.0129727 0.00233584 -9.02916e-005 -0.0071 -2.3249 -0.0142 -3.71083e-006 3.14034e-006 3.90373e-006 -0.6113 -8.7231 -2.0637 -7.95139e-016 -3.18055e-015 -3.57812e-015 0.1927 -3.8059 -0.2383 0.0163431 0.00303853 -0.00087002 0.1091 -2.1688 -0.1362 -1.10971e-005 2.96529e-006 -3.07843e-006 0.6151 -8.0947 -3.564 -7.95139e-016 -3.18055e-015 -3.57812e-015 0.4882 -2.341 -0.6462 0.0145764 0.00367479 -0.00325633 0.3574 -1.7166 -0.4742 -7.24373e-007 7.89838e-006 -4.30537e-006 1.4199 -1.8761 1.4221 -7.95139e-016 -3.18055e-015 -3.57812e-015 1.1472 -3.4929 2.6336 -5.73215e-006 3.07121e-006 2.21262e-006 0.8229 -2.3 1.6571 4.84311e-006 6.38563e-006 1.56941e-006 -9.412 3.9771 -0.7758 -81.9302 -38.0558 -70.5981 -0.7531 -40.938 -1.77636e-015 -129.813 66.8483 157.161 0 -40.1986 0 -26.5331 6.82232 4.27758 -3.55271e-015 -4.4182 9.239 3.25647e-007 1.61721e-006 -5.11099e-006 9.4119 3.9773 -0.7758 67.253 -51.9016 69.2059 0.7532 -40.9383 7.10543e-015 3.07871 18.5475 -0.38717 7.10543e-015 -40.1986 0 3.3069 -1.08028 0.247925 0 -4.4182 9.239 8.19987e-016 -1.98785e-016 -5.96354e-016 
41.798 41.099 18.1154 179.97 59.0055 -29.9888 1.77636e-015 8.7983 -4.7612 -0.706943 8.85064 4.12369 0 8.0291 0.4195 -2.10323 17.6249 8.51341 0 9.9351 -2.2114 -2.10323 17.6249 8.51342 3.55271e-015 22.3885 -0.4656 -30.1421 25.295 13.9325 -0.0001 12.643 3.4389 -5.05052 -7.97169 -6.38727 2.2603 21.606 7.4023 -40.2442 -0.000576328 -15.4606 13.5163 -1.1332 -5.0146 61.1989 14.2384 -38.763 -0.0995 -28.05 -0.2431 1.53422 -5.43528 -35.6521 0.0679 -23.3996 -0.1402 6.14152 -10.4832 12.6638 0.7932 -9.069 2.5189 -0 0 1.59028e-015 -0.8272 -3.3923 0.5977 -0 0 1.59028e-015 -0.5649 -2.3158 0.4082 0 0 -0 0.9159 -9.2044 0.2193 -0 0 1.59028e-015 0.0117 -4.1944 -0.0248 -0.0128552 0.00233148 8.78574e-005 0.0071 -2.3249 -0.0142 -7.95139e-016 6.36111e-015 1.19271e-015 0.6113 -8.7231 -2.0637 -0 0 1.59028e-015 -0.1927 -3.8059 -0.2383 -0.0160455 0.00299012 0.000860684 -0.1091 -2.1688 -0.1362 -7.95139e-016 0 -5.96354e-016 -0.6151 -8.0947 -3.5641 -0 0 1.59028e-015 -0.4882 -2.341 -0.6462 -0.012562 0.00312882 0.00282163 -0.3575 -1.7167 -0.4742 -1.59028e-015 -9.54166e-015 3.37934e-015 -1.42 -1.8761 1.4223 -0 0 1.59028e-015 -1.1471 -3.4929 2.6334 -0 0 1.59028e-015 -0.823 -2.3 1.6571 0 0 -0 -2.2603 21.606 7.4023 -18.6234 -7.74281 6.99905 -13.5187 -1.1334 -5.0155 -22.632 8.1523 38.3282 0.0994 -28.0499 -0.2431 9.9889 -31.8338 39.9368 -0.0679 -23.3996 -0.1402 -0.493033 16.4941 1.03013 -0.7932 -9.0691 2.5189 3.18055e-015 3.18055e-015 1.59028e-015 0.8272 -3.3923 0.5977 2.38542e-015 3.18055e-015 -3.97569e-015 0.565 -2.3158 0.4082 3.18055e-015 1.27222e-014 1.59028e-015 -0.916 -9.2044 0.2193 3.18055e-015 3.18055e-015 1.59028e-015 -0.0117 -4.1944 -0.0248 0.0129832 0.0023205 -8.38205e-005 -0.0071 -2.3249 -0.0142 -7.95139e-016 -3.18055e-015 -7.95139e-016 -0.6113 -8.7231 -2.0637 3.18055e-015 3.18055e-015 1.59028e-015 0.1927 -3.8059 -0.2383 0.0163443 0.00304314 -0.000882037 0.1091 -2.1688 -0.1362 7.95139e-016 0 3.97569e-015 0.6151 -8.0947 -3.564 3.18055e-015 3.18055e-015 1.59028e-015 0.4882 -2.341 -0.6462 0.0145946 0.00368737 -0.00327654 0.3574 -1.7166 -0.4742 7.95139e-016 3.18055e-015 3.97569e-016 1.4199 -1.8761 1.4221 3.18055e-015 3.18055e-015 1.59028e-015 1.1472 -3.4929 2.6336 2.38542e-015 3.18055e-015 -3.97569e-015 0.8229 -2.3 1.6571 3.18055e-015 1.27222e-014 1.59028e-015 -9.412 3.9771 -0.7758 -81.6204 -37.8442 -70.3673 -0.7531 -40.938 -1.77636e-015 -129.263 66.8614 156.67 -3.55271e-015 -40.1986 -1.42109e-014 -26.5272 6.83589 4.27875 7.10543e-015 -4.4182 9.239 3.94145e-007 -6.94751e-006 -5.56915e-006 9.4119 3.9773 -0.7758 67.2707 -51.9081 69.2299 0.7532 -40.9383 1.77636e-015 3.07841 18.5406 -0.386958 -7.10543e-015 -40.1986 0 3.30752 -1.07505 0.24764 -7.10543e-015 -4.4182 9.239 9.95212e-010 -2.37096e-011 -1.0669e-007 
